<svg xmlns="http://www.w3.org/2000/svg" width="480" height="200" viewBox="0 0 480 200" role="img" aria-labelledby="title"><title id="title">CloudChase — Predicting cloud cover from satellite imagery. U-Net / INSAT-3DS / Nowcasting. Open repository.</title><rect width="480" height="200" fill="#090b09"/><g aria-label="CloudChase" fill="#f1f3ef" transform="translate(28 53) scale(0.032000 -0.032000)"><path transform="translate(0.000 0)" d="M332.699951171875 -14Q205.1497802734375 -14 130.02471923828125 58.5Q54.899658203125 131 54.899658203125 267.7498779296875V432.2501220703125Q54.899658203125 569 130.02471923828125 641.5Q205.1497802734375 714 332.699951171875 714Q459.2501220703125 714 527.6502685546875 644.199951171875Q596.0504150390625 574.39990234375 596.0504150390625 453.1497802734375V447.499755859375H489.1488037109375V456.4498291015625Q489.1488037109375 526.8492431640625 450.799072265625 571.9238891601562Q412.4493408203125 616.99853515625 332.699951171875 616.99853515625Q253.2506103515625 616.99853515625 208.17596435546875 568.39892578125Q163.101318359375 519.79931640625 163.101318359375 434.2501220703125V265.7498779296875Q163.101318359375 180.8507080078125 208.17596435546875 131.92608642578125Q253.2506103515625 83.00146484375 332.699951171875 83.00146484375Q412.4493408203125 83.00146484375 450.799072265625 128.401123046875Q489.1488037109375 173.80078125 489.1488037109375 243.5501708984375V260.500244140625H596.0504150390625V246.8502197265625Q596.0504150390625 125.60009765625 527.6502685546875 55.800048828125Q459.2501220703125 -14 332.699951171875 -14Z"/><path transform="translate(624.250 0)" d="M76.299560546875 0V700H179.201171875V0Z"/><path transform="translate(861.500 0)" d="M307.39990234375 -14Q233.39990234375 -14 175.62481689453125 16.52496337890625Q117.8497314453125 47.0499267578125 85.07464599609375 103.87493896484375Q52.299560546875 160.699951171875 52.299560546875 238.9500732421875V253.5501708984375Q52.299560546875 331.80029296875 85.07464599609375 388.62530517578125Q117.8497314453125 445.4503173828125 175.62481689453125 475.97528076171875Q233.39990234375 506.500244140625 307.39990234375 506.500244140625Q381.39990234375 506.500244140625 439.17498779296875 475.97528076171875Q496.9500732421875 445.4503173828125 529.7251586914062 388.62530517578125Q562.500244140625 331.80029296875 562.500244140625 253.5501708984375V238.9500732421875Q562.500244140625 160.699951171875 529.7251586914062 103.87493896484375Q496.9500732421875 47.0499267578125 439.17498779296875 16.52496337890625Q381.39990234375 -14 307.39990234375 -14ZM307.39990234375 77.701416015625Q375.19921875 77.701416015625 417.39892578125 121.1510009765625Q459.5986328125 164.6005859375 459.5986328125 241.60009765625V250.900146484375Q459.5986328125 327.899658203125 417.72393798828125 371.3492431640625Q375.8492431640625 414.798828125 307.39990234375 414.798828125Q239.9505615234375 414.798828125 197.57586669921875 371.3492431640625Q155.201171875 327.899658203125 155.201171875 250.900146484375V241.60009765625Q155.201171875 164.6005859375 197.57586669921875 121.1510009765625Q239.9505615234375 77.701416015625 307.39990234375 77.701416015625Z"/><path transform="translate(1457.750 0)" d="M264.599609375 -8.699951171875Q208.699462890625 -8.699951171875 164.8494873046875 16.22515869140625Q120.99951171875 41.1502685546875 96.12457275390625 87.27532958984375Q71.2496337890625 133.400390625 71.2496337890625 196.500244140625V492.500244140625H174.1512451171875V204.400390625Q174.1512451171875 140.3509521484375 206.02593994140625 109.72613525390625Q237.900634765625 79.101318359375 294.500244140625 79.101318359375Q358.4498291015625 79.101318359375 396.7493896484375 121.4510498046875Q435.0489501953125 163.80078125 435.0489501953125 243.6500244140625V492.500244140625H537.9505615234375V0H437.0489501953125V73.7493896484375H421.1488037109375Q407.0489501953125 43.8497314453125 371.2491455078125 17.57489013671875Q335.4493408203125 -8.699951171875 264.599609375 -8.699951171875Z"/><path transform="translate(2053.000 0)" d="M279.79931640625 -14Q218.699462890625 -14 166.67449951171875 15.8499755859375Q114.6495361328125 45.699951171875 83.47454833984375 102.52496337890625Q52.299560546875 159.3499755859375 52.299560546875 238.9500732421875V253.5501708984375Q52.299560546875 333.1502685546875 83.299560546875 389.97528076171875Q114.299560546875 446.80029296875 166.17449951171875 476.6502685546875Q218.0494384765625 506.500244140625 279.79931640625 506.500244140625Q327.9490966796875 506.500244140625 360.72393798828125 494.600341796875Q393.498779296875 482.700439453125 414.07366943359375 464.42559814453125Q434.6485595703125 446.1507568359375 445.698486328125 425.700927734375H461.5986328125V700H564.500244140625V0H463.5986328125V70.1492919921875H447.698486328125Q429.298583984375 37.9495849609375 390.6488037109375 11.97479248046875Q351.9990234375 -14 279.79931640625 -14ZM309.39990234375 76.4013671875Q376.1492919921875 76.4013671875 419.52398681640625 119.32598876953125Q462.898681640625 162.2506103515625 462.898681640625 241.60009765625V250.900146484375Q462.898681640625 330.2496337890625 419.8489990234375 373.17425537109375Q376.79931640625 416.098876953125 309.39990234375 416.098876953125Q243.00048828125 416.098876953125 199.4508056640625 373.17425537109375Q155.901123046875 330.2496337890625 155.901123046875 250.900146484375V241.60009765625Q155.901123046875 162.2506103515625 199.4508056640625 119.32598876953125Q243.00048828125 76.4013671875 309.39990234375 76.4013671875Z"/><path transform="translate(2675.250 0)" d="M332.699951171875 -14Q205.1497802734375 -14 130.02471923828125 58.5Q54.899658203125 131 54.899658203125 267.7498779296875V432.2501220703125Q54.899658203125 569 130.02471923828125 641.5Q205.1497802734375 714 332.699951171875 714Q459.2501220703125 714 527.6502685546875 644.199951171875Q596.0504150390625 574.39990234375 596.0504150390625 453.1497802734375V447.499755859375H489.1488037109375V456.4498291015625Q489.1488037109375 526.8492431640625 450.799072265625 571.9238891601562Q412.4493408203125 616.99853515625 332.699951171875 616.99853515625Q253.2506103515625 616.99853515625 208.17596435546875 568.39892578125Q163.101318359375 519.79931640625 163.101318359375 434.2501220703125V265.7498779296875Q163.101318359375 180.8507080078125 208.17596435546875 131.92608642578125Q253.2506103515625 83.00146484375 332.699951171875 83.00146484375Q412.4493408203125 83.00146484375 450.799072265625 128.401123046875Q489.1488037109375 173.80078125 489.1488037109375 243.5501708984375V260.500244140625H596.0504150390625V246.8502197265625Q596.0504150390625 125.60009765625 527.6502685546875 55.800048828125Q459.2501220703125 -14 332.699951171875 -14Z"/><path transform="translate(3299.500 0)" d="M76.299560546875 0V700H179.201171875V423.100830078125H195.101318359375Q204.501220703125 441.900634765625 223.07611083984375 459.82550048828125Q241.6510009765625 477.7503662109375 272.2508544921875 489.30029296875Q302.8507080078125 500.8502197265625 349.6505126953125 500.8502197265625Q405.900634765625 500.8502197265625 449.57562255859375 475.92510986328125Q493.2506103515625 451 518.1255493164062 405.37493896484375Q543.00048828125 359.7498779296875 543.00048828125 296V0H440.098876953125V288.099853515625Q440.098876953125 352.499267578125 408.22418212890625 382.77410888671875Q376.3494873046875 413.0489501953125 319.7498779296875 413.0489501953125Q255.80029296875 413.0489501953125 217.500732421875 370.87420654296875Q179.201171875 328.699462890625 179.201171875 248.8502197265625V0Z"/><path transform="translate(3895.750 0)" d="M228.5496826171875 -14Q176.2496337890625 -14 134.42462158203125 4.1500244140625Q92.599609375 22.300048828125 68.27459716796875 57.27508544921875Q43.9495849609375 92.2501220703125 43.9495849609375 142.2001953125Q43.9495849609375 192.500244140625 68.27459716796875 226.12530517578125Q92.599609375 259.7503662109375 135.22467041015625 276.72540283203125Q177.8497314453125 293.700439453125 231.7498779296875 293.700439453125H382.4488525390625V325.5501708984375Q382.4488525390625 368.9495849609375 356.2491455078125 395.12432861328125Q330.0494384765625 421.299072265625 276.099853515625 421.299072265625Q223.1502685546875 421.299072265625 195.07562255859375 396.29931640625Q167.0009765625 371.299560546875 157.901123046875 330.6500244140625L62.19970703125 361.9505615234375Q74.19970703125 401.700439453125 100.52471923828125 434.2503662109375Q126.8497314453125 466.80029296875 170.82476806640625 486.6502685546875Q214.7998046875 506.500244140625 277.39990234375 506.500244140625Q373.300048828125 506.500244140625 428.02520751953125 457.8502197265625Q482.7503662109375 409.2001953125 482.7503662109375 318.6500244140625V115.80126953125Q482.7503662109375 85.80126953125 510.7503662109375 85.80126953125H553.2001953125V0H476.19970703125Q441.299560546875 0 419.3994140625 18.17498779296875Q397.499267578125 36.3499755859375 397.499267578125 67.0499267578125V70.1497802734375H381.6490478515625Q374.499267578125 54.6500244140625 358.22442626953125 34.62506103515625Q341.9495849609375 14.60009765625 310.899658203125 0.300048828125Q279.8497314453125 -14 228.5496826171875 -14ZM244.2501220703125 71.201171875Q305.6495361328125 71.201171875 344.0491943359375 106.6507568359375Q382.4488525390625 142.100341796875 382.4488525390625 203.699462890625V214.3994140625H237.9500732421875Q197.00048828125 214.3994140625 171.92584228515625 196.77459716796875Q146.8511962890625 179.1497802734375 146.8511962890625 145.1502685546875Q146.8511962890625 111.1507568359375 172.92584228515625 91.17596435546875Q199.00048828125 71.201171875 244.2501220703125 71.201171875Z"/><path transform="translate(4454.000 0)" d="M277.7498779296875 -14Q183.899658203125 -14 121.72467041015625 28.0Q59.5496826171875 70 46.19970703125 154.6495361328125L142.2510986328125 178Q149.60107421875 136.700439453125 168.90087890625 113.02569580078125Q188.20068359375 89.3509521484375 216.5504150390625 79.27606201171875Q244.900146484375 69.201171875 277.7498779296875 69.201171875Q327.3494873046875 69.201171875 353.77410888671875 87.8509521484375Q380.19873046875 106.500732421875 380.19873046875 136.500244140625Q380.19873046875 166.8497314453125 355.12408447265625 180.92462158203125Q330.0494384765625 194.99951171875 281.499755859375 203.699462890625L247.2001953125 209.7493896484375Q197.300048828125 219.0494384765625 156.39990234375 236.199462890625Q115.499755859375 253.3494873046875 91.07464599609375 283.299560546875Q66.6495361328125 313.2496337890625 66.6495361328125 359.7998046875Q66.6495361328125 429.9500732421875 119.07464599609375 468.22515869140625Q171.499755859375 506.500244140625 257.39990234375 506.500244140625Q340.39990234375 506.500244140625 393.82501220703125 469.32525634765625Q447.2501220703125 432.1502685546875 462.8502197265625 368.300537109375L367.19873046875 340.699951171875Q358.498779296875 385.699462890625 329.4490966796875 404.499267578125Q300.3994140625 423.299072265625 257.39990234375 423.299072265625Q214.7503662109375 423.299072265625 190.8507080078125 407.82427978515625Q166.9510498046875 392.3494873046875 166.9510498046875 363.699951171875Q166.9510498046875 334.100341796875 190.4508056640625 320.1505126953125Q213.9505615234375 306.20068359375 254.2501220703125 299.1507568359375L288.5496826171875 293.100830078125Q342.4498291015625 283.80078125 386.02496337890625 267.6507568359375Q429.60009765625 251.500732421875 455.0501708984375 221.87567138671875Q480.500244140625 192.2506103515625 480.500244140625 142.3504638671875Q480.500244140625 67.500244140625 425.57513427734375 26.7501220703125Q370.6500244140625 -14 277.7498779296875 -14Z"/><path transform="translate(4960.250 0)" d="M301.599609375 -14Q227.2496337890625 -14 171.099609375 17.5Q114.9495849609375 49 83.62457275390625 106.32501220703125Q52.299560546875 163.6500244140625 52.299560546875 240.2501220703125V252.2501220703125Q52.299560546875 329.2001953125 83.299560546875 386.3502197265625Q114.299560546875 443.500244140625 169.77459716796875 475.000244140625Q225.2496337890625 506.500244140625 297.8497314453125 506.500244140625Q369.099853515625 506.500244140625 422.57489013671875 475.400146484375Q476.0499267578125 444.300048828125 506.0499267578125 388.199951171875Q536.0499267578125 332.099853515625 536.0499267578125 256.7998046875V217.6495361328125H156.501220703125Q158.8511962890625 152.6505126953125 200.62579345703125 114.52593994140625Q242.400390625 76.4013671875 304.19970703125 76.4013671875Q362.4493408203125 76.4013671875 391.82403564453125 102.201171875Q421.19873046875 128.0009765625 436.6485595703125 161.9505615234375L522.499755859375 118.4498291015625Q508.1497802734375 90 481.6497802734375 59.1500244140625Q455.1497802734375 28.300048828125 411.8497314453125 7.1500244140625Q368.5496826171875 -14 301.599609375 -14ZM157.501220703125 296.9505615234375H431.498291015625Q427.498291015625 352.5496826171875 391.22369384765625 384.32427978515625Q354.9490966796875 416.098876953125 297.19970703125 416.098876953125Q238.500244140625 416.098876953125 202.20068359375 384.32427978515625Q165.901123046875 352.5496826171875 157.501220703125 296.9505615234375Z"/></g><path d="M426 46 L442 30 M426 30 H442 V46" fill="none" stroke="#c5fa72" stroke-width="2"/><g aria-label="Predicting cloud cover" fill="#aab4a5" transform="translate(28 96) scale(0.021000 -0.021000)"><path transform="translate(0.000 0)" d="M80.200439453125 0V700H347.60980224609375Q410.76971435546875 700 460.5596923828125 675.6300659179688Q510.34967041015625 651.2601318359375 539.2046813964844 606.1002197265625Q568.0596923828125 560.9403076171875 568.0596923828125 497.07037353515625V484.49041748046875Q568.0596923828125 420.91046142578125 538.5596923828125 375.25054931640625Q509.0596923828125 329.59063720703125 459.26971435546875 305.5757141113281Q409.479736328125 281.560791015625 347.60980224609375 281.560791015625H163.9189453125V0ZM163.9189453125 357.5394287109375H338.86993408203125Q405.75054931640625 357.5394287109375 445.0458679199219 391.34967041015625Q484.3411865234375 425.159912109375 484.3411865234375 485.7803955078125V495.7803955078125Q484.3411865234375 557.1109008789062 445.7558898925781 590.5661315917969Q407.17059326171875 624.0213623046875 338.86993408203125 624.0213623046875H163.9189453125Z"/><path transform="translate(601.000 0)" d="M82.7803955078125 0V488.8997802734375H159.9189453125V429.34967041015625H173.6588134765625Q186.78887939453125 461.479736328125 213.70892333984375 476.18975830078125Q240.62896728515625 490.8997802734375 285.279296875 490.8997802734375H343.14923095703125V418.6610107421875H279.72918701171875Q226.759033203125 418.6610107421875 194.3389892578125 389.2558898925781Q161.9189453125 359.85076904296875 161.9189453125 297.6204833984375V0Z"/><path transform="translate(978.000 0)" d="M307.3603515625 -14Q232.65032958984375 -14 176.8603515625 17.5Q121.07037353515625 49 89.92538452148438 106.14498901367188Q58.7803955078125 163.28997802734375 58.7803955078125 238.44989013671875V250.44989013671875Q58.7803955078125 326.31982421875 89.7803955078125 383.10980224609375Q120.7803955078125 439.8997802734375 175.71536254882812 471.3997802734375Q230.65032958984375 502.8997802734375 301.81024169921875 502.8997802734375Q371.2601318359375 502.8997802734375 424.1950988769531 473.2398681640625Q477.13006591796875 443.5799560546875 507.13006591796875 388.9200439453125Q537.1300659179688 334.2601318359375 537.1300659179688 259.68017578125V224.49041748046875H138.4989013671875Q141.20892333984375 145.08953857421875 188.92428588867188 100.66415405273438Q236.6396484375 56.23876953125 308.520263671875 56.23876953125Q372.17059326171875 56.23876953125 406.0458679199219 84.9189453125Q439.921142578125 113.59912109375 457.89129638671875 153.66949462890625L526.1002197265625 120.97015380859375Q511.39019775390625 90 484.89019775390625 58.78997802734375Q458.39019775390625 27.5799560546875 415.81024169921875 6.78997802734375Q373.23028564453125 -14 307.3603515625 -14ZM139.4989013671875 288.66949462890625H456.7015380859375Q452.7015380859375 357.23028564453125 410.4861755371094 394.9456481933594Q368.27081298828125 432.6610107421875 301.520263671875 432.6610107421875Q234.8997802734375 432.6610107421875 192.119384765625 394.9456481933594Q149.3389892578125 357.23028564453125 139.4989013671875 288.66949462890625Z"/><path transform="translate(1570.000 0)" d="M289.880615234375 -14Q226.6204833984375 -14 174.05545043945312 16.21002197265625Q121.49041748046875 46.4200439453125 90.13540649414062 103.06503295898438Q58.7803955078125 159.71002197265625 58.7803955078125 237.86993408203125V251.02984619140625Q58.7803955078125 329.18975830078125 89.7803955078125 385.8347473144531Q120.7803955078125 442.479736328125 173.55545043945312 472.68975830078125Q226.33050537109375 502.8997802734375 289.880615234375 502.8997802734375Q341.27081298828125 502.8997802734375 376.3859558105469 489.5596923828125Q411.5010986328125 476.2196044921875 433.6961975097656 455.6044616699219Q455.89129638671875 434.98931884765625 468.0213623046875 412.0191650390625H481.76123046875V700H560.8997802734375V0H483.76123046875V80.59063720703125H470.0213623046875Q450.1812744140625 44.07037353515625 408.29107666015625 15.035186767578125Q366.40087890625 -14 289.880615234375 -14ZM310.840087890625 56.23876953125Q386.59063720703125 56.23876953125 434.4659118652344 104.74411010742188Q482.3411865234375 153.24945068359375 482.3411865234375 240.159912109375V248.7398681640625Q482.3411865234375 335.65032958984375 434.61090087890625 384.1556701660156Q386.880615234375 432.6610107421875 310.840087890625 432.6610107421875Q235.799560546875 432.6610107421875 187.56927490234375 384.1556701660156Q139.3389892578125 335.65032958984375 139.3389892578125 248.7398681640625V240.159912109375Q139.3389892578125 153.24945068359375 187.56927490234375 104.74411010742188Q235.799560546875 56.23876953125 310.840087890625 56.23876953125Z"/><path transform="translate(2214.000 0)" d="M82.7803955078125 0V488.8997802734375H161.9189453125V0ZM122.34967041015625 565.3603515625Q96.86993408203125 565.3603515625 79.40512084960938 582.3901977539062Q61.9403076171875 599.4200439453125 61.9403076171875 625.479736328125Q61.9403076171875 652.2494506835938 79.40512084960938 668.9242858886719Q96.86993408203125 685.59912109375 122.34967041015625 685.59912109375Q148.82940673828125 685.59912109375 165.79421997070312 668.9242858886719Q182.759033203125 652.2494506835938 182.759033203125 625.479736328125Q182.759033203125 599.4200439453125 165.79421997070312 582.3901977539062Q148.82940673828125 565.3603515625 122.34967041015625 565.3603515625Z"/><path transform="translate(2459.000 0)" d="M307.97015380859375 -14Q236.68017578125 -14 180.31024169921875 16.355010986328125Q123.9403076171875 46.71002197265625 91.3603515625 103.71002197265625Q58.7803955078125 160.71002197265625 58.7803955078125 238.86993408203125V250.02984619140625Q58.7803955078125 328.8997802734375 91.3603515625 385.5447692871094Q123.9403076171875 442.18975830078125 180.31024169921875 472.5447692871094Q236.68017578125 502.8997802734375 307.97015380859375 502.8997802734375Q378.2601318359375 502.8997802734375 427.4850769042969 476.8347473144531Q476.71002197265625 450.76971435546875 505.36993408203125 407.979736328125Q534.0298461914062 365.18975830078125 541.8997802734375 315.86993408203125L464.63116455078125 299.81024169921875Q459.921142578125 336.200439453125 441.6610107421875 366.2356262207031Q423.40087890625 396.27081298828125 390.4456481933594 414.1759338378906Q357.49041748046875 432.0810546875 308.840087890625 432.0810546875Q260.18975830078125 432.0810546875 221.52450561523438 409.90087890625Q182.8592529296875 387.720703125 160.38909912109375 346.700439453125Q137.9189453125 305.68017578125 137.9189453125 248.7398681640625V240.159912109375Q137.9189453125 183.2196044921875 160.38909912109375 142.1993408203125Q182.8592529296875 101.1790771484375 221.52450561523438 78.9989013671875Q260.18975830078125 56.8187255859375 308.840087890625 56.8187255859375Q382.17059326171875 56.8187255859375 420.5458679199219 94.8389892578125Q458.921142578125 132.8592529296875 468.3411865234375 189.3795166015625L545.6098022460938 172.44989013671875Q535.4498901367188 123.71002197265625 506.0799560546875 80.9200439453125Q476.71002197265625 38.13006591796875 427.4850769042969 12.065032958984375Q378.2601318359375 -14 307.97015380859375 -14Z"/><path transform="translate(3057.000 0)" d="M262.840087890625 0Q220.9403076171875 0 198.25054931640625 23.044769287109375Q175.560791015625 46.08953857421875 175.560791015625 86.439208984375V420.40087890625H28.840087890625V488.8997802734375H175.560791015625V662.7803955078125H254.6993408203125V488.8997802734375H414.840087890625V420.40087890625H254.6993408203125V98.4989013671875Q254.6993408203125 68.4989013671875 284.119384765625 68.4989013671875H392.8997802734375V0Z"/><path transform="translate(3517.000 0)" d="M82.7803955078125 0V488.8997802734375H161.9189453125V0ZM122.34967041015625 565.3603515625Q96.86993408203125 565.3603515625 79.40512084960938 582.3901977539062Q61.9403076171875 599.4200439453125 61.9403076171875 625.479736328125Q61.9403076171875 652.2494506835938 79.40512084960938 668.9242858886719Q96.86993408203125 685.59912109375 122.34967041015625 685.59912109375Q148.82940673828125 685.59912109375 165.79421997070312 668.9242858886719Q182.759033203125 652.2494506835938 182.759033203125 625.479736328125Q182.759033203125 599.4200439453125 165.79421997070312 582.3901977539062Q148.82940673828125 565.3603515625 122.34967041015625 565.3603515625Z"/><path transform="translate(3762.000 0)" d="M82.7803955078125 0V488.8997802734375H159.9189453125V406.14923095703125H173.6588134765625Q189.9189453125 441.3795166015625 228.59912109375 469.84967041015625Q267.279296875 498.31982421875 342.08953857421875 498.31982421875Q396.5394287109375 498.31982421875 440.3944396972656 475.0149230957031Q484.24945068359375 451.71002197265625 510.0245056152344 406.63006591796875Q535.799560546875 361.55010986328125 535.799560546875 296V0H456.6610107421875V290.2601318359375Q456.6610107421875 363.3006591796875 420.2857360839844 396.27081298828125Q383.91046142578125 429.240966796875 321.55010986328125 429.240966796875Q251.479736328125 429.240966796875 206.6993408203125 382.93072509765625Q161.9189453125 336.6204833984375 161.9189453125 245.60980224609375V0Z"/><path transform="translate(4375.000 0)" d="M58.7803955078125 242.44989013671875V255.60980224609375Q58.7803955078125 332.8997802734375 90.13540649414062 388.0447692871094Q121.49041748046875 443.18975830078125 174.05545043945312 473.0447692871094Q226.6204833984375 502.8997802734375 290.4605712890625 502.8997802734375Q366.9808349609375 502.8997802734375 408.7260437011719 473.5746154785156Q450.47125244140625 444.24945068359375 470.0213623046875 408.30914306640625H483.76123046875V488.8997802734375H559.479736328125V-113.560791015625Q559.479736328125 -153.91046142578125 537.2899780273438 -176.95523071289062Q515.1002197265625 -200 472.91046142578125 -200H140.91046142578125V-129.76123046875H451.63116455078125Q481.76123046875 -129.76123046875 481.76123046875 -99.76123046875V86.04052734375H468.0213623046875Q455.89129638671875 64.3603515625 433.9861755371094 43.245208740234375Q412.0810546875 22.13006591796875 377.11090087890625 8.644989013671875Q342.1407470703125 -4.840087890625 290.4605712890625 -4.840087890625Q226.6204833984375 -4.840087890625 173.700439453125 25.014923095703125Q120.7803955078125 54.86993408203125 89.7803955078125 110.36993408203125Q58.7803955078125 165.86993408203125 58.7803955078125 242.44989013671875ZM310.840087890625 65.398681640625Q386.59063720703125 65.398681640625 434.4659118652344 113.04901123046875Q482.3411865234375 160.6993408203125 482.3411865234375 244.7398681640625V253.31982421875Q482.3411865234375 338.3603515625 434.61090087890625 385.51068115234375Q386.880615234375 432.6610107421875 310.840087890625 432.6610107421875Q235.799560546875 432.6610107421875 187.56927490234375 385.51068115234375Q139.3389892578125 338.3603515625 139.3389892578125 253.31982421875V244.7398681640625Q139.3389892578125 160.6993408203125 187.56927490234375 113.04901123046875Q235.799560546875 65.398681640625 310.840087890625 65.398681640625Z"/><path transform="translate(5017.000 0)" d=""/><path transform="translate(5274.000 0)" d="M307.97015380859375 -14Q236.68017578125 -14 180.31024169921875 16.355010986328125Q123.9403076171875 46.71002197265625 91.3603515625 103.71002197265625Q58.7803955078125 160.71002197265625 58.7803955078125 238.86993408203125V250.02984619140625Q58.7803955078125 328.8997802734375 91.3603515625 385.5447692871094Q123.9403076171875 442.18975830078125 180.31024169921875 472.5447692871094Q236.68017578125 502.8997802734375 307.97015380859375 502.8997802734375Q378.2601318359375 502.8997802734375 427.4850769042969 476.8347473144531Q476.71002197265625 450.76971435546875 505.36993408203125 407.979736328125Q534.0298461914062 365.18975830078125 541.8997802734375 315.86993408203125L464.63116455078125 299.81024169921875Q459.921142578125 336.200439453125 441.6610107421875 366.2356262207031Q423.40087890625 396.27081298828125 390.4456481933594 414.1759338378906Q357.49041748046875 432.0810546875 308.840087890625 432.0810546875Q260.18975830078125 432.0810546875 221.52450561523438 409.90087890625Q182.8592529296875 387.720703125 160.38909912109375 346.700439453125Q137.9189453125 305.68017578125 137.9189453125 248.7398681640625V240.159912109375Q137.9189453125 183.2196044921875 160.38909912109375 142.1993408203125Q182.8592529296875 101.1790771484375 221.52450561523438 78.9989013671875Q260.18975830078125 56.8187255859375 308.840087890625 56.8187255859375Q382.17059326171875 56.8187255859375 420.5458679199219 94.8389892578125Q458.921142578125 132.8592529296875 468.3411865234375 189.3795166015625L545.6098022460938 172.44989013671875Q535.4498901367188 123.71002197265625 506.0799560546875 80.9200439453125Q476.71002197265625 38.13006591796875 427.4850769042969 12.065032958984375Q378.2601318359375 -14 307.97015380859375 -14Z"/><path transform="translate(5872.000 0)" d="M82.7803955078125 0V700H161.9189453125V0Z"/><path transform="translate(6117.000 0)" d="M308.840087890625 -14Q234.840087890625 -14 178.32516479492188 17.065032958984375Q121.81024169921875 48.13006591796875 90.29531860351562 104.77505493164062Q58.7803955078125 161.4200439453125 58.7803955078125 237.86993408203125V251.02984619140625Q58.7803955078125 327.479736328125 90.29531860351562 384.1247253417969Q121.81024169921875 440.76971435546875 178.32516479492188 471.8347473144531Q234.840087890625 502.8997802734375 308.840087890625 502.8997802734375Q382.840087890625 502.8997802734375 439.3550109863281 471.8347473144531Q495.86993408203125 440.76971435546875 527.3848571777344 384.1247253417969Q558.8997802734375 327.479736328125 558.8997802734375 251.02984619140625V237.86993408203125Q558.8997802734375 161.4200439453125 527.3848571777344 104.77505493164062Q495.86993408203125 48.13006591796875 439.3550109863281 17.065032958984375Q382.840087890625 -14 308.840087890625 -14ZM308.840087890625 56.8187255859375Q386.720703125 56.8187255859375 433.240966796875 106.38909912109375Q479.76123046875 155.95947265625 479.76123046875 240.159912109375V248.7398681640625Q479.76123046875 332.9403076171875 433.3859558105469 382.51068115234375Q387.01068115234375 432.0810546875 308.840087890625 432.0810546875Q231.66949462890625 432.0810546875 184.79421997070312 382.51068115234375Q137.9189453125 332.9403076171875 137.9189453125 248.7398681640625V240.159912109375Q137.9189453125 155.95947265625 184.79421997070312 106.38909912109375Q231.66949462890625 56.8187255859375 308.840087890625 56.8187255859375Z"/><path transform="translate(6735.000 0)" d="M270.3603515625 -9.4200439453125Q216.6204833984375 -9.4200439453125 172.41046142578125 13.884857177734375Q128.200439453125 37.18975830078125 102.42538452148438 82.41470336914062Q76.65032958984375 127.6396484375 76.65032958984375 192.8997802734375V488.8997802734375H155.78887939453125V198.6396484375Q155.78887939453125 126.30914306640625 192.16415405273438 92.98397827148438Q228.5394287109375 59.6588134765625 290.8997802734375 59.6588134765625Q360.97015380859375 59.6588134765625 405.75054931640625 105.96905517578125Q450.53094482421875 152.279296875 450.53094482421875 243.28997802734375V488.8997802734375H529.6694946289062V0H452.53094482421875V82.75054931640625H438.79107666015625Q422.53094482421875 47.81024169921875 383.85076904296875 19.195098876953125Q345.17059326171875 -9.4200439453125 270.3603515625 -9.4200439453125Z"/><path transform="translate(7347.000 0)" d="M289.880615234375 -14Q226.6204833984375 -14 174.05545043945312 16.21002197265625Q121.49041748046875 46.4200439453125 90.13540649414062 103.06503295898438Q58.7803955078125 159.71002197265625 58.7803955078125 237.86993408203125V251.02984619140625Q58.7803955078125 329.18975830078125 89.7803955078125 385.8347473144531Q120.7803955078125 442.479736328125 173.55545043945312 472.68975830078125Q226.33050537109375 502.8997802734375 289.880615234375 502.8997802734375Q341.27081298828125 502.8997802734375 376.3859558105469 489.5596923828125Q411.5010986328125 476.2196044921875 433.6961975097656 455.6044616699219Q455.89129638671875 434.98931884765625 468.0213623046875 412.0191650390625H481.76123046875V700H560.8997802734375V0H483.76123046875V80.59063720703125H470.0213623046875Q450.1812744140625 44.07037353515625 408.29107666015625 15.035186767578125Q366.40087890625 -14 289.880615234375 -14ZM310.840087890625 56.23876953125Q386.59063720703125 56.23876953125 434.4659118652344 104.74411010742188Q482.3411865234375 153.24945068359375 482.3411865234375 240.159912109375V248.7398681640625Q482.3411865234375 335.65032958984375 434.61090087890625 384.1556701660156Q386.880615234375 432.6610107421875 310.840087890625 432.6610107421875Q235.799560546875 432.6610107421875 187.56927490234375 384.1556701660156Q139.3389892578125 335.65032958984375 139.3389892578125 248.7398681640625V240.159912109375Q139.3389892578125 153.24945068359375 187.56927490234375 104.74411010742188Q235.799560546875 56.23876953125 310.840087890625 56.23876953125Z"/><path transform="translate(7991.000 0)" d=""/><path transform="translate(8248.000 0)" d="M307.97015380859375 -14Q236.68017578125 -14 180.31024169921875 16.355010986328125Q123.9403076171875 46.71002197265625 91.3603515625 103.71002197265625Q58.7803955078125 160.71002197265625 58.7803955078125 238.86993408203125V250.02984619140625Q58.7803955078125 328.8997802734375 91.3603515625 385.5447692871094Q123.9403076171875 442.18975830078125 180.31024169921875 472.5447692871094Q236.68017578125 502.8997802734375 307.97015380859375 502.8997802734375Q378.2601318359375 502.8997802734375 427.4850769042969 476.8347473144531Q476.71002197265625 450.76971435546875 505.36993408203125 407.979736328125Q534.0298461914062 365.18975830078125 541.8997802734375 315.86993408203125L464.63116455078125 299.81024169921875Q459.921142578125 336.200439453125 441.6610107421875 366.2356262207031Q423.40087890625 396.27081298828125 390.4456481933594 414.1759338378906Q357.49041748046875 432.0810546875 308.840087890625 432.0810546875Q260.18975830078125 432.0810546875 221.52450561523438 409.90087890625Q182.8592529296875 387.720703125 160.38909912109375 346.700439453125Q137.9189453125 305.68017578125 137.9189453125 248.7398681640625V240.159912109375Q137.9189453125 183.2196044921875 160.38909912109375 142.1993408203125Q182.8592529296875 101.1790771484375 221.52450561523438 78.9989013671875Q260.18975830078125 56.8187255859375 308.840087890625 56.8187255859375Q382.17059326171875 56.8187255859375 420.5458679199219 94.8389892578125Q458.921142578125 132.8592529296875 468.3411865234375 189.3795166015625L545.6098022460938 172.44989013671875Q535.4498901367188 123.71002197265625 506.0799560546875 80.9200439453125Q476.71002197265625 38.13006591796875 427.4850769042969 12.065032958984375Q378.2601318359375 -14 307.97015380859375 -14Z"/><path transform="translate(8846.000 0)" d="M308.840087890625 -14Q234.840087890625 -14 178.32516479492188 17.065032958984375Q121.81024169921875 48.13006591796875 90.29531860351562 104.77505493164062Q58.7803955078125 161.4200439453125 58.7803955078125 237.86993408203125V251.02984619140625Q58.7803955078125 327.479736328125 90.29531860351562 384.1247253417969Q121.81024169921875 440.76971435546875 178.32516479492188 471.8347473144531Q234.840087890625 502.8997802734375 308.840087890625 502.8997802734375Q382.840087890625 502.8997802734375 439.3550109863281 471.8347473144531Q495.86993408203125 440.76971435546875 527.3848571777344 384.1247253417969Q558.8997802734375 327.479736328125 558.8997802734375 251.02984619140625V237.86993408203125Q558.8997802734375 161.4200439453125 527.3848571777344 104.77505493164062Q495.86993408203125 48.13006591796875 439.3550109863281 17.065032958984375Q382.840087890625 -14 308.840087890625 -14ZM308.840087890625 56.8187255859375Q386.720703125 56.8187255859375 433.240966796875 106.38909912109375Q479.76123046875 155.95947265625 479.76123046875 240.159912109375V248.7398681640625Q479.76123046875 332.9403076171875 433.3859558105469 382.51068115234375Q387.01068115234375 432.0810546875 308.840087890625 432.0810546875Q231.66949462890625 432.0810546875 184.79421997070312 382.51068115234375Q137.9189453125 332.9403076171875 137.9189453125 248.7398681640625V240.159912109375Q137.9189453125 155.95947265625 184.79421997070312 106.38909912109375Q231.66949462890625 56.8187255859375 308.840087890625 56.8187255859375Z"/><path transform="translate(9464.000 0)" d="M206.6610107421875 0 31.6204833984375 488.8997802734375H115.9189453125L262.86993408203125 59.3389892578125H276.60980224609375L423.560791015625 488.8997802734375H507.8592529296875L332.8187255859375 0Z"/><path transform="translate(10003.000 0)" d="M307.3603515625 -14Q232.65032958984375 -14 176.8603515625 17.5Q121.07037353515625 49 89.92538452148438 106.14498901367188Q58.7803955078125 163.28997802734375 58.7803955078125 238.44989013671875V250.44989013671875Q58.7803955078125 326.31982421875 89.7803955078125 383.10980224609375Q120.7803955078125 439.8997802734375 175.71536254882812 471.3997802734375Q230.65032958984375 502.8997802734375 301.81024169921875 502.8997802734375Q371.2601318359375 502.8997802734375 424.1950988769531 473.2398681640625Q477.13006591796875 443.5799560546875 507.13006591796875 388.9200439453125Q537.1300659179688 334.2601318359375 537.1300659179688 259.68017578125V224.49041748046875H138.4989013671875Q141.20892333984375 145.08953857421875 188.92428588867188 100.66415405273438Q236.6396484375 56.23876953125 308.520263671875 56.23876953125Q372.17059326171875 56.23876953125 406.0458679199219 84.9189453125Q439.921142578125 113.59912109375 457.89129638671875 153.66949462890625L526.1002197265625 120.97015380859375Q511.39019775390625 90 484.89019775390625 58.78997802734375Q458.39019775390625 27.5799560546875 415.81024169921875 6.78997802734375Q373.23028564453125 -14 307.3603515625 -14ZM139.4989013671875 288.66949462890625H456.7015380859375Q452.7015380859375 357.23028564453125 410.4861755371094 394.9456481933594Q368.27081298828125 432.6610107421875 301.520263671875 432.6610107421875Q234.8997802734375 432.6610107421875 192.119384765625 394.9456481933594Q149.3389892578125 357.23028564453125 139.4989013671875 288.66949462890625Z"/><path transform="translate(10595.000 0)" d="M82.7803955078125 0V488.8997802734375H159.9189453125V429.34967041015625H173.6588134765625Q186.78887939453125 461.479736328125 213.70892333984375 476.18975830078125Q240.62896728515625 490.8997802734375 285.279296875 490.8997802734375H343.14923095703125V418.6610107421875H279.72918701171875Q226.759033203125 418.6610107421875 194.3389892578125 389.2558898925781Q161.9189453125 359.85076904296875 161.9189453125 297.6204833984375V0Z"/></g><g aria-label="from satellite imagery." fill="#aab4a5" transform="translate(28 124) scale(0.021000 -0.021000)"><path transform="translate(0.000 0)" d="M178.9808349609375 0V420.40087890625H28.840087890625V488.8997802734375H178.9808349609375V613.560791015625Q178.9808349609375 653.9104614257812 201.67059326171875 676.9552307128906Q224.3603515625 700 266.2601318359375 700H389.159912109375V631.5010986328125H287.5394287109375Q258.119384765625 631.5010986328125 258.119384765625 601.5010986328125V488.8997802734375H412.2601318359375V420.40087890625H258.119384765625V0Z"/><path transform="translate(442.000 0)" d="M82.7803955078125 0V488.8997802734375H159.9189453125V429.34967041015625H173.6588134765625Q186.78887939453125 461.479736328125 213.70892333984375 476.18975830078125Q240.62896728515625 490.8997802734375 285.279296875 490.8997802734375H343.14923095703125V418.6610107421875H279.72918701171875Q226.759033203125 418.6610107421875 194.3389892578125 389.2558898925781Q161.9189453125 359.85076904296875 161.9189453125 297.6204833984375V0Z"/><path transform="translate(819.000 0)" d="M308.840087890625 -14Q234.840087890625 -14 178.32516479492188 17.065032958984375Q121.81024169921875 48.13006591796875 90.29531860351562 104.77505493164062Q58.7803955078125 161.4200439453125 58.7803955078125 237.86993408203125V251.02984619140625Q58.7803955078125 327.479736328125 90.29531860351562 384.1247253417969Q121.81024169921875 440.76971435546875 178.32516479492188 471.8347473144531Q234.840087890625 502.8997802734375 308.840087890625 502.8997802734375Q382.840087890625 502.8997802734375 439.3550109863281 471.8347473144531Q495.86993408203125 440.76971435546875 527.3848571777344 384.1247253417969Q558.8997802734375 327.479736328125 558.8997802734375 251.02984619140625V237.86993408203125Q558.8997802734375 161.4200439453125 527.3848571777344 104.77505493164062Q495.86993408203125 48.13006591796875 439.3550109863281 17.065032958984375Q382.840087890625 -14 308.840087890625 -14ZM308.840087890625 56.8187255859375Q386.720703125 56.8187255859375 433.240966796875 106.38909912109375Q479.76123046875 155.95947265625 479.76123046875 240.159912109375V248.7398681640625Q479.76123046875 332.9403076171875 433.3859558105469 382.51068115234375Q387.01068115234375 432.0810546875 308.840087890625 432.0810546875Q231.66949462890625 432.0810546875 184.79421997070312 382.51068115234375Q137.9189453125 332.9403076171875 137.9189453125 248.7398681640625V240.159912109375Q137.9189453125 155.95947265625 184.79421997070312 106.38909912109375Q231.66949462890625 56.8187255859375 308.840087890625 56.8187255859375Z"/><path transform="translate(1437.000 0)" d="M82.7803955078125 0V488.8997802734375H159.9189453125V427.799560546875H173.6588134765625Q188.078857421875 454.2196044921875 220.20892333984375 476.26971435546875Q252.3389892578125 498.31982421875 309.8592529296875 498.31982421875Q367.119384765625 498.31982421875 402.3144836425781 473.2046813964844Q437.50958251953125 448.08953857421875 453.799560546875 411.5394287109375H467.5394287109375Q484.5394287109375 447.799560546875 519.0895385742188 473.0596923828125Q553.6396484375 498.31982421875 616.31982421875 498.31982421875Q665.159912109375 498.31982421875 702.3049011230469 478.10980224609375Q739.4498901367188 457.8997802734375 760.8848571777344 420.52984619140625Q782.31982421875 383.159912109375 782.31982421875 330.97015380859375V0H703.1812744140625V324.1002197265625Q703.1812744140625 372.91046142578125 674.7260437011719 401.220703125Q646.2708129882812 429.53094482421875 594.7803955078125 429.53094482421875Q541.1300659179688 429.53094482421875 506.6247253417969 394.93072509765625Q472.119384765625 360.33050537109375 472.119384765625 294.4200439453125V0H392.9808349609375V324.1002197265625Q392.9808349609375 372.91046142578125 364.5256042480469 401.220703125Q336.07037353515625 429.53094482421875 284.5799560546875 429.53094482421875Q230.92962646484375 429.53094482421875 196.42428588867188 394.93072509765625Q161.9189453125 360.33050537109375 161.9189453125 294.4200439453125V0Z"/><path transform="translate(2297.000 0)" d=""/><path transform="translate(2554.000 0)" d="M279.55010986328125 -14Q188.9403076171875 -14 126.58529663085938 28.0Q64.23028564453125 70 50.520263671875 161.49041748046875L126.04901123046875 178Q133.759033203125 130.2196044921875 155.939208984375 102.76437377929688Q178.119384765625 75.30914306640625 210.42962646484375 63.614044189453125Q242.7398681640625 51.9189453125 279.55010986328125 51.9189453125Q334.91046142578125 51.9189453125 366.9158020019531 73.80914306640625Q398.921142578125 95.6993408203125 398.921142578125 132.8997802734375Q398.921142578125 170.81024169921875 368.6258239746094 186.50534057617188Q338.33050537109375 202.200439453125 285.1002197265625 211.6204833984375L244.31982421875 218.75054931640625Q196.5799560546875 227.33050537109375 157.840087890625 244.1204833984375Q119.1002197265625 260.91046142578125 96.29531860351562 289.7803955078125Q73.49041748046875 318.65032958984375 73.49041748046875 362.68017578125Q73.49041748046875 428.86993408203125 124.29531860351562 465.8848571777344Q175.1002197265625 502.8997802734375 258.840087890625 502.8997802734375Q341.840087890625 502.8997802734375 393.6449890136719 465.5447692871094Q445.44989013671875 428.18975830078125 459.60980224609375 360.3795166015625L385.921142578125 341.4200439453125Q376.5010986328125 393.6204833984375 342.77081298828125 415.3006591796875Q309.04052734375 436.9808349609375 258.840087890625 436.9808349609375Q209.34967041015625 436.9808349609375 180.40936279296875 418.4456481933594Q151.46905517578125 399.91046142578125 151.46905517578125 364.4200439453125Q151.46905517578125 329.0596923828125 178.56927490234375 312.58953857421875Q205.66949462890625 296.119384765625 252.44989013671875 287.98931884765625L293.23028564453125 280.8592529296875Q344.97015380859375 272.279296875 386.5650329589844 256.48931884765625Q428.159912109375 240.6993408203125 452.52984619140625 211.97439575195312Q476.8997802734375 183.24945068359375 476.8997802734375 135.50958251953125Q476.8997802734375 63.8997802734375 423.5948791503906 24.94989013671875Q370.28997802734375 -14 279.55010986328125 -14Z"/><path transform="translate(3081.000 0)" d="M233.23028564453125 -14Q181.65032958984375 -14 140.00534057617188 3.78997802734375Q98.3603515625 21.5799560546875 74.21536254882812 56.014923095703125Q50.07037353515625 90.44989013671875 50.07037353515625 139.31982421875Q50.07037353515625 188.8997802734375 74.21536254882812 221.62472534179688Q98.3603515625 254.34967041015625 140.08529663085938 270.7846374511719Q181.81024169921875 287.2196044921875 233.55010986328125 287.2196044921875H399.37103271484375V323.02984619140625Q399.37103271484375 375.07037353515625 368.85076904296875 405.0256042480469Q338.33050537109375 434.9808349609375 278.2601318359375 434.9808349609375Q219.18975830078125 434.9808349609375 185.89443969726562 406.380615234375Q152.59912109375 377.7803955078125 141.3389892578125 330.28997802734375L66.520263671875 353.66949462890625Q78.520263671875 395.2196044921875 104.66525268554688 428.84967041015625Q130.81024169921875 462.479736328125 174.24520874023438 482.68975830078125Q217.68017578125 502.8997802734375 278.840087890625 502.8997802734375Q372.5799560546875 502.8997802734375 424.9648132324219 454.60980224609375Q477.34967041015625 406.31982421875 477.34967041015625 318.28997802734375V97.078857421875Q477.34967041015625 67.078857421875 505.34967041015625 67.078857421875H550.31982421875V0H480.520263671875Q447.7803955078125 0 428.04052734375 18.355010986328125Q408.3006591796875 36.71002197265625 408.3006591796875 68.13006591796875V73.39019775390625H395.69085693359375Q385.3006591796875 54.28997802734375 366.6855163574219 33.724945068359375Q348.07037353515625 13.159912109375 315.9403076171875 -0.4200439453125Q283.81024169921875 -14 233.23028564453125 -14ZM242.44989013671875 53.9189453125Q312.49041748046875 53.9189453125 355.93072509765625 95.48931884765625Q399.37103271484375 137.0596923828125 399.37103271484375 211.6204833984375V223.04052734375H236.86993408203125Q189.799560546875 223.04052734375 159.50424194335938 202.71536254882812Q129.20892333984375 182.39019775390625 129.20892333984375 141.18975830078125Q129.20892333984375 99.98931884765625 160.50424194335938 76.95413208007812Q191.799560546875 53.9189453125 242.44989013671875 53.9189453125Z"/><path transform="translate(3656.000 0)" d="M262.840087890625 0Q220.9403076171875 0 198.25054931640625 23.044769287109375Q175.560791015625 46.08953857421875 175.560791015625 86.439208984375V420.40087890625H28.840087890625V488.8997802734375H175.560791015625V662.7803955078125H254.6993408203125V488.8997802734375H414.840087890625V420.40087890625H254.6993408203125V98.4989013671875Q254.6993408203125 68.4989013671875 284.119384765625 68.4989013671875H392.8997802734375V0Z"/><path transform="translate(4116.000 0)" d="M307.3603515625 -14Q232.65032958984375 -14 176.8603515625 17.5Q121.07037353515625 49 89.92538452148438 106.14498901367188Q58.7803955078125 163.28997802734375 58.7803955078125 238.44989013671875V250.44989013671875Q58.7803955078125 326.31982421875 89.7803955078125 383.10980224609375Q120.7803955078125 439.8997802734375 175.71536254882812 471.3997802734375Q230.65032958984375 502.8997802734375 301.81024169921875 502.8997802734375Q371.2601318359375 502.8997802734375 424.1950988769531 473.2398681640625Q477.13006591796875 443.5799560546875 507.13006591796875 388.9200439453125Q537.1300659179688 334.2601318359375 537.1300659179688 259.68017578125V224.49041748046875H138.4989013671875Q141.20892333984375 145.08953857421875 188.92428588867188 100.66415405273438Q236.6396484375 56.23876953125 308.520263671875 56.23876953125Q372.17059326171875 56.23876953125 406.0458679199219 84.9189453125Q439.921142578125 113.59912109375 457.89129638671875 153.66949462890625L526.1002197265625 120.97015380859375Q511.39019775390625 90 484.89019775390625 58.78997802734375Q458.39019775390625 27.5799560546875 415.81024169921875 6.78997802734375Q373.23028564453125 -14 307.3603515625 -14ZM139.4989013671875 288.66949462890625H456.7015380859375Q452.7015380859375 357.23028564453125 410.4861755371094 394.9456481933594Q368.27081298828125 432.6610107421875 301.520263671875 432.6610107421875Q234.8997802734375 432.6610107421875 192.119384765625 394.9456481933594Q149.3389892578125 357.23028564453125 139.4989013671875 288.66949462890625Z"/><path transform="translate(4708.000 0)" d="M82.7803955078125 0V700H161.9189453125V0Z"/><path transform="translate(4953.000 0)" d="M82.7803955078125 0V700H161.9189453125V0Z"/><path transform="translate(5198.000 0)" d="M82.7803955078125 0V488.8997802734375H161.9189453125V0ZM122.34967041015625 565.3603515625Q96.86993408203125 565.3603515625 79.40512084960938 582.3901977539062Q61.9403076171875 599.4200439453125 61.9403076171875 625.479736328125Q61.9403076171875 652.2494506835938 79.40512084960938 668.9242858886719Q96.86993408203125 685.59912109375 122.34967041015625 685.59912109375Q148.82940673828125 685.59912109375 165.79421997070312 668.9242858886719Q182.759033203125 652.2494506835938 182.759033203125 625.479736328125Q182.759033203125 599.4200439453125 165.79421997070312 582.3901977539062Q148.82940673828125 565.3603515625 122.34967041015625 565.3603515625Z"/><path transform="translate(5443.000 0)" d="M262.840087890625 0Q220.9403076171875 0 198.25054931640625 23.044769287109375Q175.560791015625 46.08953857421875 175.560791015625 86.439208984375V420.40087890625H28.840087890625V488.8997802734375H175.560791015625V662.7803955078125H254.6993408203125V488.8997802734375H414.840087890625V420.40087890625H254.6993408203125V98.4989013671875Q254.6993408203125 68.4989013671875 284.119384765625 68.4989013671875H392.8997802734375V0Z"/><path transform="translate(5903.000 0)" d="M307.3603515625 -14Q232.65032958984375 -14 176.8603515625 17.5Q121.07037353515625 49 89.92538452148438 106.14498901367188Q58.7803955078125 163.28997802734375 58.7803955078125 238.44989013671875V250.44989013671875Q58.7803955078125 326.31982421875 89.7803955078125 383.10980224609375Q120.7803955078125 439.8997802734375 175.71536254882812 471.3997802734375Q230.65032958984375 502.8997802734375 301.81024169921875 502.8997802734375Q371.2601318359375 502.8997802734375 424.1950988769531 473.2398681640625Q477.13006591796875 443.5799560546875 507.13006591796875 388.9200439453125Q537.1300659179688 334.2601318359375 537.1300659179688 259.68017578125V224.49041748046875H138.4989013671875Q141.20892333984375 145.08953857421875 188.92428588867188 100.66415405273438Q236.6396484375 56.23876953125 308.520263671875 56.23876953125Q372.17059326171875 56.23876953125 406.0458679199219 84.9189453125Q439.921142578125 113.59912109375 457.89129638671875 153.66949462890625L526.1002197265625 120.97015380859375Q511.39019775390625 90 484.89019775390625 58.78997802734375Q458.39019775390625 27.5799560546875 415.81024169921875 6.78997802734375Q373.23028564453125 -14 307.3603515625 -14ZM139.4989013671875 288.66949462890625H456.7015380859375Q452.7015380859375 357.23028564453125 410.4861755371094 394.9456481933594Q368.27081298828125 432.6610107421875 301.520263671875 432.6610107421875Q234.8997802734375 432.6610107421875 192.119384765625 394.9456481933594Q149.3389892578125 357.23028564453125 139.4989013671875 288.66949462890625Z"/><path transform="translate(6495.000 0)" d=""/><path transform="translate(6752.000 0)" d="M82.7803955078125 0V488.8997802734375H161.9189453125V0ZM122.34967041015625 565.3603515625Q96.86993408203125 565.3603515625 79.40512084960938 582.3901977539062Q61.9403076171875 599.4200439453125 61.9403076171875 625.479736328125Q61.9403076171875 652.2494506835938 79.40512084960938 668.9242858886719Q96.86993408203125 685.59912109375 122.34967041015625 685.59912109375Q148.82940673828125 685.59912109375 165.79421997070312 668.9242858886719Q182.759033203125 652.2494506835938 182.759033203125 625.479736328125Q182.759033203125 599.4200439453125 165.79421997070312 582.3901977539062Q148.82940673828125 565.3603515625 122.34967041015625 565.3603515625Z"/><path transform="translate(6997.000 0)" d="M82.7803955078125 0V488.8997802734375H159.9189453125V427.799560546875H173.6588134765625Q188.078857421875 454.2196044921875 220.20892333984375 476.26971435546875Q252.3389892578125 498.31982421875 309.8592529296875 498.31982421875Q367.119384765625 498.31982421875 402.3144836425781 473.2046813964844Q437.50958251953125 448.08953857421875 453.799560546875 411.5394287109375H467.5394287109375Q484.5394287109375 447.799560546875 519.0895385742188 473.0596923828125Q553.6396484375 498.31982421875 616.31982421875 498.31982421875Q665.159912109375 498.31982421875 702.3049011230469 478.10980224609375Q739.4498901367188 457.8997802734375 760.8848571777344 420.52984619140625Q782.31982421875 383.159912109375 782.31982421875 330.97015380859375V0H703.1812744140625V324.1002197265625Q703.1812744140625 372.91046142578125 674.7260437011719 401.220703125Q646.2708129882812 429.53094482421875 594.7803955078125 429.53094482421875Q541.1300659179688 429.53094482421875 506.6247253417969 394.93072509765625Q472.119384765625 360.33050537109375 472.119384765625 294.4200439453125V0H392.9808349609375V324.1002197265625Q392.9808349609375 372.91046142578125 364.5256042480469 401.220703125Q336.07037353515625 429.53094482421875 284.5799560546875 429.53094482421875Q230.92962646484375 429.53094482421875 196.42428588867188 394.93072509765625Q161.9189453125 360.33050537109375 161.9189453125 294.4200439453125V0Z"/><path transform="translate(7857.000 0)" d="M233.23028564453125 -14Q181.65032958984375 -14 140.00534057617188 3.78997802734375Q98.3603515625 21.5799560546875 74.21536254882812 56.014923095703125Q50.07037353515625 90.44989013671875 50.07037353515625 139.31982421875Q50.07037353515625 188.8997802734375 74.21536254882812 221.62472534179688Q98.3603515625 254.34967041015625 140.08529663085938 270.7846374511719Q181.81024169921875 287.2196044921875 233.55010986328125 287.2196044921875H399.37103271484375V323.02984619140625Q399.37103271484375 375.07037353515625 368.85076904296875 405.0256042480469Q338.33050537109375 434.9808349609375 278.2601318359375 434.9808349609375Q219.18975830078125 434.9808349609375 185.89443969726562 406.380615234375Q152.59912109375 377.7803955078125 141.3389892578125 330.28997802734375L66.520263671875 353.66949462890625Q78.520263671875 395.2196044921875 104.66525268554688 428.84967041015625Q130.81024169921875 462.479736328125 174.24520874023438 482.68975830078125Q217.68017578125 502.8997802734375 278.840087890625 502.8997802734375Q372.5799560546875 502.8997802734375 424.9648132324219 454.60980224609375Q477.34967041015625 406.31982421875 477.34967041015625 318.28997802734375V97.078857421875Q477.34967041015625 67.078857421875 505.34967041015625 67.078857421875H550.31982421875V0H480.520263671875Q447.7803955078125 0 428.04052734375 18.355010986328125Q408.3006591796875 36.71002197265625 408.3006591796875 68.13006591796875V73.39019775390625H395.69085693359375Q385.3006591796875 54.28997802734375 366.6855163574219 33.724945068359375Q348.07037353515625 13.159912109375 315.9403076171875 -0.4200439453125Q283.81024169921875 -14 233.23028564453125 -14ZM242.44989013671875 53.9189453125Q312.49041748046875 53.9189453125 355.93072509765625 95.48931884765625Q399.37103271484375 137.0596923828125 399.37103271484375 211.6204833984375V223.04052734375H236.86993408203125Q189.799560546875 223.04052734375 159.50424194335938 202.71536254882812Q129.20892333984375 182.39019775390625 129.20892333984375 141.18975830078125Q129.20892333984375 99.98931884765625 160.50424194335938 76.95413208007812Q191.799560546875 53.9189453125 242.44989013671875 53.9189453125Z"/><path transform="translate(8432.000 0)" d="M58.7803955078125 242.44989013671875V255.60980224609375Q58.7803955078125 332.8997802734375 90.13540649414062 388.0447692871094Q121.49041748046875 443.18975830078125 174.05545043945312 473.0447692871094Q226.6204833984375 502.8997802734375 290.4605712890625 502.8997802734375Q366.9808349609375 502.8997802734375 408.7260437011719 473.5746154785156Q450.47125244140625 444.24945068359375 470.0213623046875 408.30914306640625H483.76123046875V488.8997802734375H559.479736328125V-113.560791015625Q559.479736328125 -153.91046142578125 537.2899780273438 -176.95523071289062Q515.1002197265625 -200 472.91046142578125 -200H140.91046142578125V-129.76123046875H451.63116455078125Q481.76123046875 -129.76123046875 481.76123046875 -99.76123046875V86.04052734375H468.0213623046875Q455.89129638671875 64.3603515625 433.9861755371094 43.245208740234375Q412.0810546875 22.13006591796875 377.11090087890625 8.644989013671875Q342.1407470703125 -4.840087890625 290.4605712890625 -4.840087890625Q226.6204833984375 -4.840087890625 173.700439453125 25.014923095703125Q120.7803955078125 54.86993408203125 89.7803955078125 110.36993408203125Q58.7803955078125 165.86993408203125 58.7803955078125 242.44989013671875ZM310.840087890625 65.398681640625Q386.59063720703125 65.398681640625 434.4659118652344 113.04901123046875Q482.3411865234375 160.6993408203125 482.3411865234375 244.7398681640625V253.31982421875Q482.3411865234375 338.3603515625 434.61090087890625 385.51068115234375Q386.880615234375 432.6610107421875 310.840087890625 432.6610107421875Q235.799560546875 432.6610107421875 187.56927490234375 385.51068115234375Q139.3389892578125 338.3603515625 139.3389892578125 253.31982421875V244.7398681640625Q139.3389892578125 160.6993408203125 187.56927490234375 113.04901123046875Q235.799560546875 65.398681640625 310.840087890625 65.398681640625Z"/><path transform="translate(9074.000 0)" d="M307.3603515625 -14Q232.65032958984375 -14 176.8603515625 17.5Q121.07037353515625 49 89.92538452148438 106.14498901367188Q58.7803955078125 163.28997802734375 58.7803955078125 238.44989013671875V250.44989013671875Q58.7803955078125 326.31982421875 89.7803955078125 383.10980224609375Q120.7803955078125 439.8997802734375 175.71536254882812 471.3997802734375Q230.65032958984375 502.8997802734375 301.81024169921875 502.8997802734375Q371.2601318359375 502.8997802734375 424.1950988769531 473.2398681640625Q477.13006591796875 443.5799560546875 507.13006591796875 388.9200439453125Q537.1300659179688 334.2601318359375 537.1300659179688 259.68017578125V224.49041748046875H138.4989013671875Q141.20892333984375 145.08953857421875 188.92428588867188 100.66415405273438Q236.6396484375 56.23876953125 308.520263671875 56.23876953125Q372.17059326171875 56.23876953125 406.0458679199219 84.9189453125Q439.921142578125 113.59912109375 457.89129638671875 153.66949462890625L526.1002197265625 120.97015380859375Q511.39019775390625 90 484.89019775390625 58.78997802734375Q458.39019775390625 27.5799560546875 415.81024169921875 6.78997802734375Q373.23028564453125 -14 307.3603515625 -14ZM139.4989013671875 288.66949462890625H456.7015380859375Q452.7015380859375 357.23028564453125 410.4861755371094 394.9456481933594Q368.27081298828125 432.6610107421875 301.520263671875 432.6610107421875Q234.8997802734375 432.6610107421875 192.119384765625 394.9456481933594Q149.3389892578125 357.23028564453125 139.4989013671875 288.66949462890625Z"/><path transform="translate(9666.000 0)" d="M82.7803955078125 0V488.8997802734375H159.9189453125V429.34967041015625H173.6588134765625Q186.78887939453125 461.479736328125 213.70892333984375 476.18975830078125Q240.62896728515625 490.8997802734375 285.279296875 490.8997802734375H343.14923095703125V418.6610107421875H279.72918701171875Q226.759033203125 418.6610107421875 194.3389892578125 389.2558898925781Q161.9189453125 359.85076904296875 161.9189453125 297.6204833984375V0Z"/><path transform="translate(10043.000 0)" d="M141.75054931640625 -200V-129.76123046875H421.69085693359375Q451.11090087890625 -129.76123046875 451.11090087890625 -99.76123046875V78.49041748046875H437.37103271484375Q426.53094482421875 56.520263671875 406.3358459472656 36.325164794921875Q386.1407470703125 16.13006591796875 353.2356262207031 3.355010986328125Q320.33050537109375 -9.4200439453125 270.3603515625 -9.4200439453125Q216.6204833984375 -9.4200439453125 172.41046142578125 13.884857177734375Q128.200439453125 37.18975830078125 102.42538452148438 82.0596923828125Q76.65032958984375 126.92962646484375 76.65032958984375 192.18975830078125V488.8997802734375H155.78887939453125V197.92962646484375Q155.78887939453125 125.59912109375 192.16415405273438 92.62896728515625Q228.5394287109375 59.6588134765625 290.8997802734375 59.6588134765625Q360.97015380859375 59.6588134765625 405.75054931640625 105.61404418945312Q450.53094482421875 151.56927490234375 450.53094482421875 242.5799560546875V488.8997802734375H529.6694946289062V-113.560791015625Q529.6694946289062 -153.91046142578125 507.1247253417969 -176.95523071289062Q484.5799560546875 -200 442.39019775390625 -200Z"/><path transform="translate(10655.000 0)" d="M126.42428588867188 -14Q96.92962646484375 -14 77.59487915039062 5.111959317835366Q58.2601318359375 24.22391863567073 58.2601318359375 54.08635506978849Q58.2601318359375 83.94879150390625 77.59487915039062 102.99356079101562Q96.92962646484375 122.038330078125 126.42428588867188 122.038330078125Q155.9189453125 122.038330078125 175.10870361328125 102.92637076028964Q194.2984619140625 83.81441144245427 194.2984619140625 53.95197500833651Q194.2984619140625 24.08953857421875 175.10870361328125 5.044769287109375Q155.9189453125 -14 126.42428588867188 -14Z"/></g><g aria-label="U-Net / INSAT-3DS / Nowcasting" fill="#c5fa72" transform="translate(28 169) scale(0.016000 -0.016000)"><path transform="translate(0.000 0)" d="M333.159912109375 -14Q254.97015380859375 -14 197.020263671875 13.94989013671875Q139.07037353515625 41.8997802734375 106.92538452148438 97.20468139648438Q74.7803955078125 152.50958251953125 74.7803955078125 233.92962646484375V700H158.4989013671875V232.76971435546875Q158.4989013671875 147.46905517578125 204.22918701171875 104.43386840820312Q249.95947265625 61.398681640625 333.159912109375 61.398681640625Q416.3603515625 61.398681640625 462.09063720703125 104.43386840820312Q507.8209228515625 147.46905517578125 507.8209228515625 232.76971435546875V700H591.5394287109375V233.92962646484375Q591.5394287109375 152.50958251953125 559.7494506835938 97.20468139648438Q527.95947265625 41.8997802734375 469.6545715332031 13.94989013671875Q411.34967041015625 -14 333.159912109375 -14Z"/><path transform="translate(666.000 0)" d="M79.3603515625 220.720703125V293.5394287109375H375.3603515625V220.720703125Z"/><path transform="translate(1121.000 0)" d="M80.200439453125 0V700H243.15771484375L486.53094482421875 53.078857421875H500.27081298828125V700H583.4093627929688V0H420.45208740234375L177.078857421875 647.6311645507812H163.3389892578125V0Z"/><path transform="translate(1785.000 0)" d="M307.3603515625 -14Q232.65032958984375 -14 176.8603515625 17.5Q121.07037353515625 49 89.92538452148438 106.14498901367188Q58.7803955078125 163.28997802734375 58.7803955078125 238.44989013671875V250.44989013671875Q58.7803955078125 326.31982421875 89.7803955078125 383.10980224609375Q120.7803955078125 439.8997802734375 175.71536254882812 471.3997802734375Q230.65032958984375 502.8997802734375 301.81024169921875 502.8997802734375Q371.2601318359375 502.8997802734375 424.1950988769531 473.2398681640625Q477.13006591796875 443.5799560546875 507.13006591796875 388.9200439453125Q537.1300659179688 334.2601318359375 537.1300659179688 259.68017578125V224.49041748046875H138.4989013671875Q141.20892333984375 145.08953857421875 188.92428588867188 100.66415405273438Q236.6396484375 56.23876953125 308.520263671875 56.23876953125Q372.17059326171875 56.23876953125 406.0458679199219 84.9189453125Q439.921142578125 113.59912109375 457.89129638671875 153.66949462890625L526.1002197265625 120.97015380859375Q511.39019775390625 90 484.89019775390625 58.78997802734375Q458.39019775390625 27.5799560546875 415.81024169921875 6.78997802734375Q373.23028564453125 -14 307.3603515625 -14ZM139.4989013671875 288.66949462890625H456.7015380859375Q452.7015380859375 357.23028564453125 410.4861755371094 394.9456481933594Q368.27081298828125 432.6610107421875 301.520263671875 432.6610107421875Q234.8997802734375 432.6610107421875 192.119384765625 394.9456481933594Q149.3389892578125 357.23028564453125 139.4989013671875 288.66949462890625Z"/><path transform="translate(2377.000 0)" d="M262.840087890625 0Q220.9403076171875 0 198.25054931640625 23.044769287109375Q175.560791015625 46.08953857421875 175.560791015625 86.439208984375V420.40087890625H28.840087890625V488.8997802734375H175.560791015625V662.7803955078125H254.6993408203125V488.8997802734375H414.840087890625V420.40087890625H254.6993408203125V98.4989013671875Q254.6993408203125 68.4989013671875 284.119384765625 68.4989013671875H392.8997802734375V0Z"/><path transform="translate(2837.000 0)" d=""/><path transform="translate(3094.000 0)" d="M-0.3795166015625 -200 293.6204833984375 700H373.46905517578125L79.46905517578125 -200Z"/><path transform="translate(3464.000 0)" d=""/><path transform="translate(3721.000 0)" d="M80.200439453125 0V700H163.9189453125V0Z"/><path transform="translate(3965.000 0)" d="M80.200439453125 0V700H243.15771484375L486.53094482421875 53.078857421875H500.27081298828125V700H583.4093627929688V0H420.45208740234375L177.078857421875 647.6311645507812H163.3389892578125V0Z"/><path transform="translate(4629.000 0)" d="M313.2601318359375 -14Q236.520263671875 -14 176.65032958984375 13.224945068359375Q116.7803955078125 40.44989013671875 82.49041748046875 94.80490112304688Q48.200439453125 149.159912109375 48.200439453125 230.840087890625V252.44989013671875H131.3389892578125V230.840087890625Q131.3389892578125 143.6993408203125 182.05435180664062 101.54901123046875Q232.76971435546875 59.398681640625 313.2601318359375 59.398681640625Q394.75054931640625 59.398681640625 437.8358459472656 95.98397827148438Q480.921142578125 132.56927490234375 480.921142578125 189.479736328125Q480.921142578125 227.71002197265625 461.5810546875 251.03518676757812Q442.240966796875 274.3603515625 407.19085693359375 288.700439453125Q372.1407470703125 303.04052734375 325.01068115234375 314.4605712890625L272.8997802734375 327.27081298828125Q211.55010986328125 342.560791015625 164.66525268554688 365.6407470703125Q117.7803955078125 388.720703125 91.34542846679688 426.2356262207031Q64.91046142578125 463.75054931640625 64.91046142578125 522.7803955078125Q64.91046142578125 581.8102416992188 94.700439453125 624.8251647949219Q124.49041748046875 667.840087890625 177.50534057617188 690.9200439453125Q230.520263671875 714 301.2601318359375 714Q372 714 428.36993408203125 689.5650329589844Q484.7398681640625 665.1300659179688 517.5298461914062 617.4701538085938Q550.31982421875 569.8102416992188 550.31982421875 498.07037353515625V456H467.1812744140625V498.07037353515625Q467.1812744140625 548.720703125 445.6460876464844 579.9659118652344Q424.11090087890625 611.2111206054688 386.59063720703125 625.9062194824219Q349.07037353515625 640.601318359375 301.2601318359375 640.601318359375Q232.02984619140625 640.601318359375 190.0394287109375 610.2910766601562Q148.04901123046875 579.9808349609375 148.04901123046875 523.9403076171875Q148.04901123046875 486.5799560546875 165.80914306640625 463.60980224609375Q183.56927490234375 440.6396484375 216.60446166992188 426.50958251953125Q249.6396484375 412.3795166015625 295.8997802734375 401.24945068359375L348.01068115234375 388.439208984375Q408.81024169921875 374.56927490234375 457.5650329589844 352.0543518066406Q506.31982421875 329.5394287109375 535.1897583007812 291.0245056152344Q564.0596923828125 252.50958251953125 564.0596923828125 190.6396484375Q564.0596923828125 128.76971435546875 532.979736328125 82.75479125976562Q501.8997802734375 36.7398681640625 445.5948791503906 11.36993408203125Q389.28997802734375 -14 313.2601318359375 -14Z"/><path transform="translate(5242.000 0)" d="M25.1002197265625 0 241.05120849609375 700H388.68865966796875L604.6396484375 0H517.6311645507812L464.01068115234375 176.720703125H165.72918701171875L112.10870361328125 0ZM187.4989013671875 253.279296875H442.240966796875L321.7398681640625 648.9509887695312H308Z"/><path transform="translate(5872.000 0)" d="M252.1407470703125 0V624.0213623046875H26.840087890625V700H561.159912109375V624.0213623046875H335.8592529296875V0Z"/><path transform="translate(6460.000 0)" d="M79.3603515625 220.720703125V293.5394287109375H375.3603515625V220.720703125Z"/><path transform="translate(6915.000 0)" d="M303.28997802734375 -14Q228.55010986328125 -14 170.03518676757812 14.0Q111.520263671875 42 78.4403076171875 95.21002197265625Q45.3603515625 148.4200439453125 45.3603515625 223.2601318359375V241.97015380859375H126.4989013671875V223.71002197265625Q126.4989013671875 147.119384765625 175.439208984375 102.96905517578125Q224.3795166015625 58.8187255859375 303.28997802734375 58.8187255859375Q383.200439453125 58.8187255859375 427.5757141113281 100.46905517578125Q471.95098876953125 142.119384765625 471.95098876953125 205.44989013671875V212.60980224609375Q471.95098876953125 258.81024169921875 449.9158020019531 287.33050537109375Q427.880615234375 315.85076904296875 390.5852966308594 329.61090087890625Q353.28997802734375 343.37103271484375 307.92962646484375 343.37103271484375H194.200439453125V443.60980224609375L461.3817138671875 615.44140625V627.1812744140625H61.9403076171875V700H546.5799560546875V586.8017578125L285.87841796875 418.71002197265625V406.97015380859375H335.6588134765625Q395.439208984375 406.97015380859375 444.5543518066406 385.4850769042969Q493.66949462890625 364 523.3795166015625 321.659912109375Q553.0895385742188 279.31982421875 553.0895385742188 214.8997802734375V204.31982421875Q553.0895385742188 138.44989013671875 522.2196044921875 89.36993408203125Q491.34967041015625 40.28997802734375 435.0447692871094 13.144989013671875Q378.7398681640625 -14 303.28997802734375 -14Z"/><path transform="translate(7519.000 0)" d="M47.4200439453125 0V74.8187255859375H145.1002197265625V625.1812744140625H47.4200439453125V700H319.799560546875Q457.95947265625 700 533.5895385742188 629.9200439453125Q609.2196044921875 559.840087890625 609.2196044921875 414.5799560546875V284.71002197265625Q609.2196044921875 139.44989013671875 533.5895385742188 69.72494506835938Q457.95947265625 0 319.799560546875 0ZM228.8187255859375 75.9786376953125H320.3795166015625Q421.68017578125 75.9786376953125 473.59063720703125 125.78887939453125Q525.5010986328125 175.59912109375 525.5010986328125 281.4200439453125V417.86993408203125Q525.5010986328125 524.6908569335938 473.59063720703125 574.0010986328125Q421.68017578125 623.3113403320312 320.3795166015625 623.3113403320312H228.8187255859375Z"/><path transform="translate(8182.000 0)" d="M313.2601318359375 -14Q236.520263671875 -14 176.65032958984375 13.224945068359375Q116.7803955078125 40.44989013671875 82.49041748046875 94.80490112304688Q48.200439453125 149.159912109375 48.200439453125 230.840087890625V252.44989013671875H131.3389892578125V230.840087890625Q131.3389892578125 143.6993408203125 182.05435180664062 101.54901123046875Q232.76971435546875 59.398681640625 313.2601318359375 59.398681640625Q394.75054931640625 59.398681640625 437.8358459472656 95.98397827148438Q480.921142578125 132.56927490234375 480.921142578125 189.479736328125Q480.921142578125 227.71002197265625 461.5810546875 251.03518676757812Q442.240966796875 274.3603515625 407.19085693359375 288.700439453125Q372.1407470703125 303.04052734375 325.01068115234375 314.4605712890625L272.8997802734375 327.27081298828125Q211.55010986328125 342.560791015625 164.66525268554688 365.6407470703125Q117.7803955078125 388.720703125 91.34542846679688 426.2356262207031Q64.91046142578125 463.75054931640625 64.91046142578125 522.7803955078125Q64.91046142578125 581.8102416992188 94.700439453125 624.8251647949219Q124.49041748046875 667.840087890625 177.50534057617188 690.9200439453125Q230.520263671875 714 301.2601318359375 714Q372 714 428.36993408203125 689.5650329589844Q484.7398681640625 665.1300659179688 517.5298461914062 617.4701538085938Q550.31982421875 569.8102416992188 550.31982421875 498.07037353515625V456H467.1812744140625V498.07037353515625Q467.1812744140625 548.720703125 445.6460876464844 579.9659118652344Q424.11090087890625 611.2111206054688 386.59063720703125 625.9062194824219Q349.07037353515625 640.601318359375 301.2601318359375 640.601318359375Q232.02984619140625 640.601318359375 190.0394287109375 610.2910766601562Q148.04901123046875 579.9808349609375 148.04901123046875 523.9403076171875Q148.04901123046875 486.5799560546875 165.80914306640625 463.60980224609375Q183.56927490234375 440.6396484375 216.60446166992188 426.50958251953125Q249.6396484375 412.3795166015625 295.8997802734375 401.24945068359375L348.01068115234375 388.439208984375Q408.81024169921875 374.56927490234375 457.5650329589844 352.0543518066406Q506.31982421875 329.5394287109375 535.1897583007812 291.0245056152344Q564.0596923828125 252.50958251953125 564.0596923828125 190.6396484375Q564.0596923828125 128.76971435546875 532.979736328125 82.75479125976562Q501.8997802734375 36.7398681640625 445.5948791503906 11.36993408203125Q389.28997802734375 -14 313.2601318359375 -14Z"/><path transform="translate(8795.000 0)" d=""/><path transform="translate(9052.000 0)" d="M-0.3795166015625 -200 293.6204833984375 700H373.46905517578125L79.46905517578125 -200Z"/><path transform="translate(9422.000 0)" d=""/><path transform="translate(9679.000 0)" d="M80.200439453125 0V700H243.15771484375L486.53094482421875 53.078857421875H500.27081298828125V700H583.4093627929688V0H420.45208740234375L177.078857421875 647.6311645507812H163.3389892578125V0Z"/><path transform="translate(10343.000 0)" d="M308.840087890625 -14Q234.840087890625 -14 178.32516479492188 17.065032958984375Q121.81024169921875 48.13006591796875 90.29531860351562 104.77505493164062Q58.7803955078125 161.4200439453125 58.7803955078125 237.86993408203125V251.02984619140625Q58.7803955078125 327.479736328125 90.29531860351562 384.1247253417969Q121.81024169921875 440.76971435546875 178.32516479492188 471.8347473144531Q234.840087890625 502.8997802734375 308.840087890625 502.8997802734375Q382.840087890625 502.8997802734375 439.3550109863281 471.8347473144531Q495.86993408203125 440.76971435546875 527.3848571777344 384.1247253417969Q558.8997802734375 327.479736328125 558.8997802734375 251.02984619140625V237.86993408203125Q558.8997802734375 161.4200439453125 527.3848571777344 104.77505493164062Q495.86993408203125 48.13006591796875 439.3550109863281 17.065032958984375Q382.840087890625 -14 308.840087890625 -14ZM308.840087890625 56.8187255859375Q386.720703125 56.8187255859375 433.240966796875 106.38909912109375Q479.76123046875 155.95947265625 479.76123046875 240.159912109375V248.7398681640625Q479.76123046875 332.9403076171875 433.3859558105469 382.51068115234375Q387.01068115234375 432.0810546875 308.840087890625 432.0810546875Q231.66949462890625 432.0810546875 184.79421997070312 382.51068115234375Q137.9189453125 332.9403076171875 137.9189453125 248.7398681640625V240.159912109375Q137.9189453125 155.95947265625 184.79421997070312 106.38909912109375Q231.66949462890625 56.8187255859375 308.840087890625 56.8187255859375Z"/><path transform="translate(10961.000 0)" d="M151.1812744140625 0 52.7803955078125 488.8997802734375H133.04901123046875L213.97015380859375 53.04901123046875H227.71002197265625L335.0213623046875 488.8997802734375H466.0191650390625L573.3305053710938 53.04901123046875H587.0703735351562L667.9915161132812 488.8997802734375H748.2601318359375L649.8592529296875 0H514.7015380859375L407.39019775390625 435.85076904296875H393.65032958984375L286.3389892578125 0Z"/><path transform="translate(11762.000 0)" d="M307.97015380859375 -14Q236.68017578125 -14 180.31024169921875 16.355010986328125Q123.9403076171875 46.71002197265625 91.3603515625 103.71002197265625Q58.7803955078125 160.71002197265625 58.7803955078125 238.86993408203125V250.02984619140625Q58.7803955078125 328.8997802734375 91.3603515625 385.5447692871094Q123.9403076171875 442.18975830078125 180.31024169921875 472.5447692871094Q236.68017578125 502.8997802734375 307.97015380859375 502.8997802734375Q378.2601318359375 502.8997802734375 427.4850769042969 476.8347473144531Q476.71002197265625 450.76971435546875 505.36993408203125 407.979736328125Q534.0298461914062 365.18975830078125 541.8997802734375 315.86993408203125L464.63116455078125 299.81024169921875Q459.921142578125 336.200439453125 441.6610107421875 366.2356262207031Q423.40087890625 396.27081298828125 390.4456481933594 414.1759338378906Q357.49041748046875 432.0810546875 308.840087890625 432.0810546875Q260.18975830078125 432.0810546875 221.52450561523438 409.90087890625Q182.8592529296875 387.720703125 160.38909912109375 346.700439453125Q137.9189453125 305.68017578125 137.9189453125 248.7398681640625V240.159912109375Q137.9189453125 183.2196044921875 160.38909912109375 142.1993408203125Q182.8592529296875 101.1790771484375 221.52450561523438 78.9989013671875Q260.18975830078125 56.8187255859375 308.840087890625 56.8187255859375Q382.17059326171875 56.8187255859375 420.5458679199219 94.8389892578125Q458.921142578125 132.8592529296875 468.3411865234375 189.3795166015625L545.6098022460938 172.44989013671875Q535.4498901367188 123.71002197265625 506.0799560546875 80.9200439453125Q476.71002197265625 38.13006591796875 427.4850769042969 12.065032958984375Q378.2601318359375 -14 307.97015380859375 -14Z"/><path transform="translate(12360.000 0)" d="M233.23028564453125 -14Q181.65032958984375 -14 140.00534057617188 3.78997802734375Q98.3603515625 21.5799560546875 74.21536254882812 56.014923095703125Q50.07037353515625 90.44989013671875 50.07037353515625 139.31982421875Q50.07037353515625 188.8997802734375 74.21536254882812 221.62472534179688Q98.3603515625 254.34967041015625 140.08529663085938 270.7846374511719Q181.81024169921875 287.2196044921875 233.55010986328125 287.2196044921875H399.37103271484375V323.02984619140625Q399.37103271484375 375.07037353515625 368.85076904296875 405.0256042480469Q338.33050537109375 434.9808349609375 278.2601318359375 434.9808349609375Q219.18975830078125 434.9808349609375 185.89443969726562 406.380615234375Q152.59912109375 377.7803955078125 141.3389892578125 330.28997802734375L66.520263671875 353.66949462890625Q78.520263671875 395.2196044921875 104.66525268554688 428.84967041015625Q130.81024169921875 462.479736328125 174.24520874023438 482.68975830078125Q217.68017578125 502.8997802734375 278.840087890625 502.8997802734375Q372.5799560546875 502.8997802734375 424.9648132324219 454.60980224609375Q477.34967041015625 406.31982421875 477.34967041015625 318.28997802734375V97.078857421875Q477.34967041015625 67.078857421875 505.34967041015625 67.078857421875H550.31982421875V0H480.520263671875Q447.7803955078125 0 428.04052734375 18.355010986328125Q408.3006591796875 36.71002197265625 408.3006591796875 68.13006591796875V73.39019775390625H395.69085693359375Q385.3006591796875 54.28997802734375 366.6855163574219 33.724945068359375Q348.07037353515625 13.159912109375 315.9403076171875 -0.4200439453125Q283.81024169921875 -14 233.23028564453125 -14ZM242.44989013671875 53.9189453125Q312.49041748046875 53.9189453125 355.93072509765625 95.48931884765625Q399.37103271484375 137.0596923828125 399.37103271484375 211.6204833984375V223.04052734375H236.86993408203125Q189.799560546875 223.04052734375 159.50424194335938 202.71536254882812Q129.20892333984375 182.39019775390625 129.20892333984375 141.18975830078125Q129.20892333984375 99.98931884765625 160.50424194335938 76.95413208007812Q191.799560546875 53.9189453125 242.44989013671875 53.9189453125Z"/><path transform="translate(12935.000 0)" d="M279.55010986328125 -14Q188.9403076171875 -14 126.58529663085938 28.0Q64.23028564453125 70 50.520263671875 161.49041748046875L126.04901123046875 178Q133.759033203125 130.2196044921875 155.939208984375 102.76437377929688Q178.119384765625 75.30914306640625 210.42962646484375 63.614044189453125Q242.7398681640625 51.9189453125 279.55010986328125 51.9189453125Q334.91046142578125 51.9189453125 366.9158020019531 73.80914306640625Q398.921142578125 95.6993408203125 398.921142578125 132.8997802734375Q398.921142578125 170.81024169921875 368.6258239746094 186.50534057617188Q338.33050537109375 202.200439453125 285.1002197265625 211.6204833984375L244.31982421875 218.75054931640625Q196.5799560546875 227.33050537109375 157.840087890625 244.1204833984375Q119.1002197265625 260.91046142578125 96.29531860351562 289.7803955078125Q73.49041748046875 318.65032958984375 73.49041748046875 362.68017578125Q73.49041748046875 428.86993408203125 124.29531860351562 465.8848571777344Q175.1002197265625 502.8997802734375 258.840087890625 502.8997802734375Q341.840087890625 502.8997802734375 393.6449890136719 465.5447692871094Q445.44989013671875 428.18975830078125 459.60980224609375 360.3795166015625L385.921142578125 341.4200439453125Q376.5010986328125 393.6204833984375 342.77081298828125 415.3006591796875Q309.04052734375 436.9808349609375 258.840087890625 436.9808349609375Q209.34967041015625 436.9808349609375 180.40936279296875 418.4456481933594Q151.46905517578125 399.91046142578125 151.46905517578125 364.4200439453125Q151.46905517578125 329.0596923828125 178.56927490234375 312.58953857421875Q205.66949462890625 296.119384765625 252.44989013671875 287.98931884765625L293.23028564453125 280.8592529296875Q344.97015380859375 272.279296875 386.5650329589844 256.48931884765625Q428.159912109375 240.6993408203125 452.52984619140625 211.97439575195312Q476.8997802734375 183.24945068359375 476.8997802734375 135.50958251953125Q476.8997802734375 63.8997802734375 423.5948791503906 24.94989013671875Q370.28997802734375 -14 279.55010986328125 -14Z"/><path transform="translate(13462.000 0)" d="M262.840087890625 0Q220.9403076171875 0 198.25054931640625 23.044769287109375Q175.560791015625 46.08953857421875 175.560791015625 86.439208984375V420.40087890625H28.840087890625V488.8997802734375H175.560791015625V662.7803955078125H254.6993408203125V488.8997802734375H414.840087890625V420.40087890625H254.6993408203125V98.4989013671875Q254.6993408203125 68.4989013671875 284.119384765625 68.4989013671875H392.8997802734375V0Z"/><path transform="translate(13922.000 0)" d="M82.7803955078125 0V488.8997802734375H161.9189453125V0ZM122.34967041015625 565.3603515625Q96.86993408203125 565.3603515625 79.40512084960938 582.3901977539062Q61.9403076171875 599.4200439453125 61.9403076171875 625.479736328125Q61.9403076171875 652.2494506835938 79.40512084960938 668.9242858886719Q96.86993408203125 685.59912109375 122.34967041015625 685.59912109375Q148.82940673828125 685.59912109375 165.79421997070312 668.9242858886719Q182.759033203125 652.2494506835938 182.759033203125 625.479736328125Q182.759033203125 599.4200439453125 165.79421997070312 582.3901977539062Q148.82940673828125 565.3603515625 122.34967041015625 565.3603515625Z"/><path transform="translate(14167.000 0)" d="M82.7803955078125 0V488.8997802734375H159.9189453125V406.14923095703125H173.6588134765625Q189.9189453125 441.3795166015625 228.59912109375 469.84967041015625Q267.279296875 498.31982421875 342.08953857421875 498.31982421875Q396.5394287109375 498.31982421875 440.3944396972656 475.0149230957031Q484.24945068359375 451.71002197265625 510.0245056152344 406.63006591796875Q535.799560546875 361.55010986328125 535.799560546875 296V0H456.6610107421875V290.2601318359375Q456.6610107421875 363.3006591796875 420.2857360839844 396.27081298828125Q383.91046142578125 429.240966796875 321.55010986328125 429.240966796875Q251.479736328125 429.240966796875 206.6993408203125 382.93072509765625Q161.9189453125 336.6204833984375 161.9189453125 245.60980224609375V0Z"/><path transform="translate(14780.000 0)" d="M58.7803955078125 242.44989013671875V255.60980224609375Q58.7803955078125 332.8997802734375 90.13540649414062 388.0447692871094Q121.49041748046875 443.18975830078125 174.05545043945312 473.0447692871094Q226.6204833984375 502.8997802734375 290.4605712890625 502.8997802734375Q366.9808349609375 502.8997802734375 408.7260437011719 473.5746154785156Q450.47125244140625 444.24945068359375 470.0213623046875 408.30914306640625H483.76123046875V488.8997802734375H559.479736328125V-113.560791015625Q559.479736328125 -153.91046142578125 537.2899780273438 -176.95523071289062Q515.1002197265625 -200 472.91046142578125 -200H140.91046142578125V-129.76123046875H451.63116455078125Q481.76123046875 -129.76123046875 481.76123046875 -99.76123046875V86.04052734375H468.0213623046875Q455.89129638671875 64.3603515625 433.9861755371094 43.245208740234375Q412.0810546875 22.13006591796875 377.11090087890625 8.644989013671875Q342.1407470703125 -4.840087890625 290.4605712890625 -4.840087890625Q226.6204833984375 -4.840087890625 173.700439453125 25.014923095703125Q120.7803955078125 54.86993408203125 89.7803955078125 110.36993408203125Q58.7803955078125 165.86993408203125 58.7803955078125 242.44989013671875ZM310.840087890625 65.398681640625Q386.59063720703125 65.398681640625 434.4659118652344 113.04901123046875Q482.3411865234375 160.6993408203125 482.3411865234375 244.7398681640625V253.31982421875Q482.3411865234375 338.3603515625 434.61090087890625 385.51068115234375Q386.880615234375 432.6610107421875 310.840087890625 432.6610107421875Q235.799560546875 432.6610107421875 187.56927490234375 385.51068115234375Q139.3389892578125 338.3603515625 139.3389892578125 253.31982421875V244.7398681640625Q139.3389892578125 160.6993408203125 187.56927490234375 113.04901123046875Q235.799560546875 65.398681640625 310.840087890625 65.398681640625Z"/></g></svg>